Coordinates
version=1
nRows=10
nColumns=40
inDegrees=yes

Units are S.I. units (second, meters, Newtons, ...)
If the header above contains a line with 'inDegrees', this indicates whether rotational values are in degrees (yes) or radians (no).

endheader
time	pelvis_tilt	pelvis_list	pelvis_rotation	pelvis_tx	pelvis_ty	pelvis_tz	hip_flexion_r	hip_adduction_r	hip_rotation_r	knee_angle_r	knee_angle_r_beta	ankle_angle_r	subtalar_angle_r	mtp_angle_r	hip_flexion_l	hip_adduction_l	hip_rotation_l	knee_angle_l	knee_angle_l_beta	ankle_angle_l	subtalar_angle_l	mtp_angle_l	lumbar_extension	lumbar_bending	lumbar_rotation	arm_flex_r	arm_add_r	arm_rot_r	elbow_flex_r	pro_sup_r	wrist_flex_r	wrist_dev_r	arm_flex_l	arm_add_l	arm_rot_l	elbow_flex_l	pro_sup_l	wrist_flex_l	wrist_dev_l
      6.15000000	     42.10192241	      0.30482402	   -177.89269679	      0.42079837	      0.67310959	     -0.60368611	     97.21203178	    -12.75107993	      5.30412891	     62.88773434	      1.09759802	     13.24818791	      0.00000000	      0.00000000	     97.29645627	    -13.88338157	      0.41798962	     62.51885814	      1.09115992	     10.64087126	      0.00000000	      0.00000000	    -40.78412029	     -4.54549136	      4.65282226	     58.90057647	    -23.30994971	     24.97455484	     29.27367929	     73.58370975	      0.00000000	      0.00000000	     71.55082480	      1.98016616	      8.88161820	     13.08010669	     23.31953073	      0.00000000	      0.00000000
      6.15500000	     41.86175134	      0.30902779	   -177.95586657	      0.42093442	      0.67271638	     -0.60375123	     97.06711291	    -12.68423481	      5.32183287	     63.01260551	      1.09977744	     13.31802497	      0.00000000	      0.00000000	     97.21043837	    -14.01643006	      0.39532412	     62.74963706	      1.09518777	     10.70456072	      0.00000000	      0.00000000	    -40.90488005	     -4.56210311	      4.71028115	     59.23605046	    -24.21859453	     27.78097891	     29.52672449	     76.98177557	      0.00000000	      0.00000000	     71.48044086	      1.95727488	      8.76324582	     13.14154381	     24.08813473	      0.00000000	      0.00000000
      6.16000000	     41.93813549	      0.46489084	   -177.81289266	      0.42122316	      0.67158442	     -0.60337661	     97.32380681	    -12.87366643	      5.17419003	     63.33696954	      1.10543866	     13.47270249	      0.00000000	      0.00000000	     97.52445862	    -13.84472605	      0.64398113	     62.96868442	      1.09901087	     10.80406548	      0.00000000	      0.00000000	    -40.61305924	     -4.31089866	      4.70140744	     58.91309375	    -23.59033119	     26.42693267	     29.16193503	     72.02712845	      0.00000000	      0.00000000	     70.95715635	      1.67595293	      9.73501797	     13.55893779	     26.92314364	      0.00000000	      0.00000000
      6.16500000	     41.60067512	      0.29512451	   -177.89528128	      0.42124932	      0.67153429	     -0.60365394	     97.08156062	    -12.74881787	      5.40348225	     63.38507118	      1.10627819	     13.44370381	      0.00000000	      0.00000000	     97.21267139	    -14.02872800	      0.38400160	     63.11155367	      1.10150441	     10.88868883	      0.00000000	      0.00000000	    -40.90328915	     -4.51829866	      4.61897537	     59.20394479	    -24.19058815	     28.09648873	     29.43042100	     77.96336199	      0.00000000	      0.00000000	     71.29652620	      1.79932701	      9.25599883	     13.10990805	     25.44096038	      0.00000000	      0.00000000
      6.17000000	     41.87173867	      0.91243702	   -177.53580798	      0.42177476	      0.67031223	     -0.60247331	     97.29359508	    -13.23866519	      4.70362184	     63.45111147	      1.10743081	     13.87866280	      0.00000000	      0.00000000	     97.81090194	    -13.42682542	      1.33425533	     63.13235300	      1.10186742	     11.13366929	      0.00000000	      0.00000000	    -40.38744490	     -3.64609830	      4.62366139	     58.91148908	    -23.43941291	     26.57286404	     29.12940044	     72.42467327	      0.00000000	      0.00000000	     70.19726153	      1.28394110	     10.04714613	     14.51007445	     28.25944132	      0.00000000	      0.00000000
      6.17500000	     41.33003385	      0.29096081	   -177.78574352	      0.42146883	      0.67038711	     -0.60350847	     97.08294930	    -12.87739377	      5.43616048	     63.79062300	      1.11335640	     13.61513565	      0.00000000	      0.00000000	     97.19654344	    -14.00861108	      0.35362539	     63.45208453	      1.10744779	     10.97032570	      0.00000000	      0.00000000	    -40.91170451	     -4.46204731	      4.58415307	     58.82585662	    -23.52916481	     25.70430156	     29.05164691	     79.07480438	      0.00000000	      0.00000000	     71.24784510	      1.94964116	      8.98229371	     13.18552538	     22.01835865	      0.00000000	      0.00000000
      6.18000000	     41.18121392	      0.27427578	   -177.77753677	      0.42153625	      0.66982383	     -0.60351920	     97.07956550	    -12.91381245	      5.43037799	     63.99330165	      1.11689381	     13.61519438	      0.00000000	      0.00000000	     97.18318592	    -14.06068530	      0.32170207	     63.67013205	      1.11125344	     10.98446910	      0.00000000	      0.00000000	    -40.93208436	     -4.45755050	      4.52536302	     58.96713793	    -23.79395109	     27.17789073	     29.05916884	     77.92747775	      0.00000000	      0.00000000	     71.02304062	      1.77382052	      9.49932839	     13.32179881	     23.38111855	      0.00000000	      0.00000000
      6.18500000	     41.05779588	      0.24334711	   -177.74602631	      0.42168019	      0.66924530	     -0.60353132	     97.08715868	    -12.92598468	      5.51720108	     64.17082859	      1.11999224	     13.69808611	      0.00000000	      0.00000000	     97.17050876	    -14.06029089	      0.30862465	     63.81653154	      1.11380859	     11.04636926	      0.00000000	      0.00000000	    -40.93011728	     -4.46893268	      4.51803614	     58.87384641	    -23.91635494	     27.42741006	     29.19407872	     78.21925758	      0.00000000	      0.00000000	     71.01853395	      1.75948902	      9.80482062	     13.20624793	     23.75484573	      0.00000000	      0.00000000
      6.19000000	     41.17692982	      0.56914557	   -177.56684785	      0.42199553	      0.66798829	     -0.60290405	     97.31525754	    -13.17860855	      5.18977680	     64.43940219	      1.12467974	     13.98967169	      0.00000000	      0.00000000	     97.63448567	    -13.80080833	      0.80117585	     64.10885451	      1.11891059	     11.19403289	      0.00000000	      0.00000000	    -40.57141384	     -4.00847415	      4.51700575	     58.57520659	    -23.14584233	     25.96854698	     28.79367640	     72.02334192	      0.00000000	      0.00000000	     70.29933713	      1.38821472	     10.65253016	     13.88190766	     27.09811096	      0.00000000	      0.00000000
      6.19500000	     40.78395562	      0.11585569	   -177.69900237	      0.42180300	      0.66815391	     -0.60361475	     97.08163099	    -12.94003448	      5.76234577	     64.53019547	      1.12626438	     13.81845595	      0.00000000	      0.00000000	     97.08200154	    -14.12450450	      0.16445257	     64.14197791	      1.11948870	     11.12652640	      0.00000000	      0.00000000	    -40.97082301	     -4.57306503	      4.38981609	     58.38643543	    -23.25554024	     25.92204223	     29.28795562	     71.54592654	      0.00000000	      0.00000000	     70.89458486	      1.53536900	     11.12618824	     12.87456101	     27.45488159	      0.00000000	      0.00000000
